<svg xmlns="http://www.w3.org/2000/svg" viewBox="0 0 54.59 54.59"><defs><style>.cls-1{opacity:0.21;}.cls-2{fill:#333033;}.cls-3{fill:#fff;fill-rule:evenodd;}</style></defs><g id="Camada_2" data-name="Camada 2"><g id="Design"><g class="cls-1"><path class="cls-2" d="M27.29,54.59a27.3,27.3,0,1,1,27.3-27.3A27.33,27.33,0,0,1,27.29,54.59Z"/></g><path class="cls-3" d="M23.64,27.61V41.69a.37.37,0,0,0,.37.36h5.23a.37.37,0,0,0,.37-.36V27.38H33.4a.36.36,0,0,0,.36-.34l.37-4.31a.38.38,0,0,0-.37-.4H29.61v-3A1.3,1.3,0,0,1,30.9,18h2.92a.37.37,0,0,0,.37-.37V13.3a.37.37,0,0,0-.37-.37H28.89a5.25,5.25,0,0,0-5.25,5.25v4.15H21a.38.38,0,0,0-.37.37V27a.38.38,0,0,0,.37.37h2.61Z"/></g></g></svg>