<svg xmlns="http://www.w3.org/2000/svg" viewBox="0 0 54.59 54.59"><defs><style>.cls-1{opacity:0.21;}.cls-2{fill:#333033;}.cls-3{fill:#fff;}</style></defs><g id="Camada_2" data-name="Camada 2"><g id="Design"><g class="cls-1"><path class="cls-2" d="M27.29,54.59a27.3,27.3,0,1,1,27.3-27.3A27.33,27.33,0,0,1,27.29,54.59Z"/></g><path class="cls-3" d="M35.79,18.18A1.81,1.81,0,1,0,37.6,20,1.81,1.81,0,0,0,35.79,18.18Zm-8,2.32a7.61,7.61,0,1,0,7.6,7.6A7.61,7.61,0,0,0,27.74,20.5Zm0,12.47a4.87,4.87,0,1,1,4.87-4.87A4.88,4.88,0,0,1,27.74,33ZM43.08,21.79a9.27,9.27,0,0,0-9.27-9.28H21.57a9.27,9.27,0,0,0-9.27,9.28V34a9.28,9.28,0,0,0,9.27,9.28H33.81A9.28,9.28,0,0,0,43.08,34ZM40.18,34a6.37,6.37,0,0,1-6.37,6.37H21.57A6.37,6.37,0,0,1,15.2,34V21.79a6.37,6.37,0,0,1,6.37-6.37H33.81a6.37,6.37,0,0,1,6.37,6.37Z"/></g></g></svg>