<svg xmlns="http://www.w3.org/2000/svg" viewBox="0 0 54.59 54.59"><defs><style>.cls-1{opacity:0.21;}.cls-2{fill:#333033;}.cls-3{fill:#fff;}</style></defs><g id="Camada_2" data-name="Camada 2"><g id="Design"><g class="cls-1"><path class="cls-2" d="M27.29,54.59a27.3,27.3,0,1,1,27.3-27.3A27.33,27.33,0,0,1,27.29,54.59Z"/></g><path class="cls-3" d="M37.26,15.41h0a2.35,2.35,0,0,0-1.72-.85h0a2.22,2.22,0,0,0-1,.22l-20.72,10h0a1.41,1.41,0,0,0-.77,1.39v.91h0a1.39,1.39,0,0,0,.86,1.39l5.38,2,1.62,6.11h0a2.34,2.34,0,0,0,1.65,1.74h0a1.7,1.7,0,0,0,.45,0h0a2,2,0,0,0,1.48-.67l2-2.09L30.35,39h0a2.29,2.29,0,0,0,2.63.31l.42-.24h0a2.91,2.91,0,0,0,1.36-2L38,18.05h0A3.16,3.16,0,0,0,37.26,15.41ZM32.92,36.67h0a.84.84,0,0,1-.37.57l-.41.23h0a.54.54,0,0,1-.27.07h0a.51.51,0,0,1-.36-.15l-4.69-4.18h0a.56.56,0,0,0-.81,0l-2.77,2.91h0a.26.26,0,0,1-.18.07V31.28h0a.73.73,0,0,1,.2-.52c4-4.18,6.37-6.52,7.79-7.86h0a.56.56,0,0,0,.15-.36h0a.46.46,0,0,0-.13-.36h0a.4.4,0,0,0-.52-.14l-9.44,6.64h0a.55.55,0,0,1-.53,0L15,26.54,35.26,16.7h0a.41.41,0,0,1,.22,0h0A.65.65,0,0,1,36,17h0a.92.92,0,0,1,.2.77Z"/></g></g></svg>