<svg xmlns="http://www.w3.org/2000/svg" viewBox="0 0 54.59 54.59"><defs><style>.cls-1{opacity:0.21;}.cls-2{fill:#333033;}.cls-3,.cls-4{fill:#fff;}.cls-4{fill-rule:evenodd;}</style></defs><g id="Camada_2" data-name="Camada 2"><g id="Design"><g class="cls-1"><path class="cls-2" d="M27.29,54.59a27.3,27.3,0,1,1,27.3-27.3A27.33,27.33,0,0,1,27.29,54.59Z"/></g><path class="cls-3" d="M41.51,19.81a11.77,11.77,0,0,1-2.76.77c.45-.07,1.1-.86,1.37-1.17A5,5,0,0,0,41,17.78c0-.05,0-.1,0-.14a.19.19,0,0,0-.15,0,14.06,14.06,0,0,1-3.28,1.22.2.2,0,0,1-.22-.06,3.76,3.76,0,0,0-.29-.28,5.94,5.94,0,0,0-1.59-1,5.77,5.77,0,0,0-2.43-.38,5.87,5.87,0,0,0-2.32.64,5.94,5.94,0,0,0-1.86,1.48,5.43,5.43,0,0,0-1.11,2.16,5.52,5.52,0,0,0-.06,2.29c0,.13,0,.14-.12.13-4.5-.65-8.23-2.22-11.26-5.57-.14-.15-.21-.15-.31,0-1.33,1.93-.69,5,1,6.55q.33.32.69.6a6,6,0,0,1-2.17-.6c-.13-.08-.2,0-.21.11a3.37,3.37,0,0,0,0,.63,5.63,5.63,0,0,0,3.57,4.47,2.87,2.87,0,0,0,.72.22,6.66,6.66,0,0,1-2.14.06c-.15,0-.21.05-.15.19a6,6,0,0,0,4.48,3.65c.2,0,.41,0,.61.08,0,0,0,0,0,0-.5.75-2.24,1.3-3.06,1.58a11.23,11.23,0,0,1-4.64.58c-.25,0-.31,0-.37,0s0,.1.07.16c.32.2.64.38,1,.56a15.54,15.54,0,0,0,3.1,1.2c5.59,1.5,11.87.4,16.07-3.64,3.29-3.18,4.44-7.56,4.44-12,0-.17.21-.26.34-.35a11.08,11.08,0,0,0,2.17-2.21.68.68,0,0,0,.14-.43v0C41.62,19.74,41.62,19.76,41.51,19.81Z"/><path class="cls-4" d="M22.4,39Z"/><path class="cls-4" d="M22.4,39Z"/><path class="cls-4" d="M23.32,39s.49,0,0,0C23.32,39,23.38,39,23.32,39Z"/><path class="cls-4" d="M33,17.22a.08.08,0,0,1-.11,0Z"/></g></g></svg>